# xmcd CD database file
#
# Track frame offsets:
#	187
#	26597
#	67519
#	92474
#	121087
#	147609
#	187459
#	214227
#
# Disc length: 3206 seconds
#
# Revision: 1
# Processed by: cddbd v1.5.1PL0 Copyright (c) Steve Scherf et al.
# Submitted via: CDex 1.51
#
DISCID=700c8408
DTITLE=Clifton Anderson - Landmarks
DYEAR=1995
DGENRE=Jazz
TTITLE0=P.G.
TTITLE1=Mommy
TTITLE2=Landmarks Along the Way
TTITLE3=Princess Neh Neh
TTITLE4=I've Never Been in Love Before
TTITLE5=My One and Only Love
TTITLE6=I Thought It Was Understood
TTITLE7=Thanks
EXTD=Clifton Anderson -- Landmarks\n\nTrombone: Clifton Anderson\nPiano: Monty Alexander\nBass: Bob Cranshaw\nDrums: Al Foster\nTrumpet: Wallace Roney ("Princess Neh Neh"]\nPercussion: Victor See Yuen ("I Thought It Was Understood"]\nAlto: Kenny Garrett
EXTD=("Mommy"]\n\nMilestone MCD-9266-2\nRecorded Jan. 30-31, 1995 YEAR: 1995
EXTT0=
EXTT1=
EXTT2=
EXTT3=
EXTT4=
EXTT5=
EXTT6=
EXTT7=
PLAYORDER=
